<mxfile host="app.diagrams.net" modified="2024-02-13T13:02:30.558Z" agent="Mozilla/5.0 (Windows NT 10.0; Win64; x64) AppleWebKit/537.36 (KHTML, like Gecko) Chrome/121.0.0.0 Safari/537.36" etag="YIgR2OngZGke92gB4cS2" version="23.1.3" type="device">
  <diagram name="Страница — 1" id="vhhqLqAjhI-egMy4YVph">
    <mxGraphModel dx="1337" dy="1858" grid="1" gridSize="10" guides="1" tooltips="1" connect="1" arrows="1" fold="1" page="1" pageScale="1" pageWidth="827" pageHeight="1169" math="0" shadow="0">
      <root>
        <mxCell id="0" />
        <mxCell id="1" parent="0" />
        <mxCell id="3wIJoGGmUqvrKHzzYAa4-1" value="Feb 2&amp;nbsp; &amp;nbsp; Feb 4&amp;nbsp; &amp;nbsp; Feb 6&amp;nbsp; &amp;nbsp; Feb 8&amp;nbsp; &amp;nbsp; Feb 10&amp;nbsp; &amp;nbsp; Feb 12&amp;nbsp; &amp;nbsp; Feb 14&amp;nbsp; &amp;nbsp; Feb 16&amp;nbsp; &amp;nbsp; Feb 18&amp;nbsp; &amp;nbsp; Feb 20&amp;nbsp; &amp;nbsp; Feb 22&amp;nbsp; &amp;nbsp;&amp;nbsp;" style="text;html=1;align=center;verticalAlign=middle;whiteSpace=wrap;rounded=0;" vertex="1" parent="1">
          <mxGeometry y="-120" width="690" height="30" as="geometry" />
        </mxCell>
        <mxCell id="3wIJoGGmUqvrKHzzYAa4-3" value="1&lt;br&gt;&lt;br&gt;0.9&lt;br&gt;&lt;br&gt;0.8&lt;br&gt;&lt;br&gt;0.7&lt;br&gt;&lt;br&gt;0.6&lt;br&gt;&lt;br&gt;0.5&lt;br&gt;&lt;br&gt;0.4&lt;br&gt;&lt;br&gt;0.3&lt;br&gt;&lt;br&gt;0.2&lt;br&gt;&lt;br&gt;0.1" style="text;html=1;align=center;verticalAlign=middle;whiteSpace=wrap;rounded=0;" vertex="1" parent="1">
          <mxGeometry x="40" y="-280" width="60" height="30" as="geometry" />
        </mxCell>
        <mxCell id="3wIJoGGmUqvrKHzzYAa4-5" value="" style="endArrow=none;html=1;rounded=0;" edge="1" parent="1">
          <mxGeometry width="50" height="50" relative="1" as="geometry">
            <mxPoint x="100" y="-130" as="sourcePoint" />
            <mxPoint x="140" y="-160" as="targetPoint" />
          </mxGeometry>
        </mxCell>
        <mxCell id="3wIJoGGmUqvrKHzzYAa4-13" value="" style="endArrow=none;html=1;rounded=0;" edge="1" parent="1">
          <mxGeometry width="50" height="50" relative="1" as="geometry">
            <mxPoint x="190" y="-170" as="sourcePoint" />
            <mxPoint x="140" y="-160" as="targetPoint" />
          </mxGeometry>
        </mxCell>
        <mxCell id="3wIJoGGmUqvrKHzzYAa4-14" value="" style="endArrow=none;html=1;rounded=0;" edge="1" parent="1">
          <mxGeometry width="50" height="50" relative="1" as="geometry">
            <mxPoint x="190" y="-170" as="sourcePoint" />
            <mxPoint x="240" y="-220" as="targetPoint" />
          </mxGeometry>
        </mxCell>
        <mxCell id="3wIJoGGmUqvrKHzzYAa4-15" value="" style="endArrow=none;html=1;rounded=0;" edge="1" parent="1">
          <mxGeometry width="50" height="50" relative="1" as="geometry">
            <mxPoint x="240" y="-220" as="sourcePoint" />
            <mxPoint x="280" y="-240" as="targetPoint" />
          </mxGeometry>
        </mxCell>
        <mxCell id="3wIJoGGmUqvrKHzzYAa4-16" value="" style="endArrow=none;html=1;rounded=0;" edge="1" parent="1">
          <mxGeometry width="50" height="50" relative="1" as="geometry">
            <mxPoint x="280" y="-240" as="sourcePoint" />
            <mxPoint x="330" y="-280" as="targetPoint" />
          </mxGeometry>
        </mxCell>
        <mxCell id="3wIJoGGmUqvrKHzzYAa4-17" value="" style="endArrow=none;html=1;rounded=0;" edge="1" parent="1">
          <mxGeometry width="50" height="50" relative="1" as="geometry">
            <mxPoint x="330" y="-280" as="sourcePoint" />
            <mxPoint x="380" y="-300" as="targetPoint" />
          </mxGeometry>
        </mxCell>
        <mxCell id="3wIJoGGmUqvrKHzzYAa4-18" value="" style="endArrow=none;html=1;rounded=0;" edge="1" parent="1">
          <mxGeometry width="50" height="50" relative="1" as="geometry">
            <mxPoint x="380" y="-300" as="sourcePoint" />
            <mxPoint x="430" y="-330" as="targetPoint" />
          </mxGeometry>
        </mxCell>
        <mxCell id="3wIJoGGmUqvrKHzzYAa4-20" value="" style="endArrow=none;html=1;rounded=0;" edge="1" parent="1">
          <mxGeometry width="50" height="50" relative="1" as="geometry">
            <mxPoint x="430" y="-330" as="sourcePoint" />
            <mxPoint x="480" y="-340" as="targetPoint" />
          </mxGeometry>
        </mxCell>
        <mxCell id="3wIJoGGmUqvrKHzzYAa4-21" value="" style="endArrow=none;html=1;rounded=0;" edge="1" parent="1">
          <mxGeometry width="50" height="50" relative="1" as="geometry">
            <mxPoint x="480" y="-340" as="sourcePoint" />
            <mxPoint x="520" y="-350" as="targetPoint" />
          </mxGeometry>
        </mxCell>
        <mxCell id="3wIJoGGmUqvrKHzzYAa4-22" value="" style="endArrow=none;html=1;rounded=0;" edge="1" parent="1">
          <mxGeometry width="50" height="50" relative="1" as="geometry">
            <mxPoint x="520" y="-350" as="sourcePoint" />
            <mxPoint x="570" y="-360" as="targetPoint" />
          </mxGeometry>
        </mxCell>
        <mxCell id="3wIJoGGmUqvrKHzzYAa4-23" value="" style="ellipse;whiteSpace=wrap;html=1;aspect=fixed;fillColor=#000000;" vertex="1" parent="1">
          <mxGeometry x="270" y="-70" width="10" height="10" as="geometry" />
        </mxCell>
        <mxCell id="3wIJoGGmUqvrKHzzYAa4-24" value="Пользователи" style="text;html=1;align=center;verticalAlign=middle;whiteSpace=wrap;rounded=0;" vertex="1" parent="1">
          <mxGeometry x="300" y="-80" width="60" height="30" as="geometry" />
        </mxCell>
        <mxCell id="3wIJoGGmUqvrKHzzYAa4-25" value="Простой пример для DAU/MAU я бы использовал линейные графики. Здесь вы можете увидеть что за февраль количество пользователей нашего приложения растет. График нарисован на сайте draw.io,но можно так же нарисовать через matplotlib(библиотека python)." style="text;html=1;align=center;verticalAlign=middle;whiteSpace=wrap;rounded=0;" vertex="1" parent="1">
          <mxGeometry x="70" y="-470" width="500" height="30" as="geometry" />
        </mxCell>
        <mxCell id="3wIJoGGmUqvrKHzzYAa4-27" value="Box plot для NPS(Net Promoter Score) поможет понять, как пользователи оценивают наше приложение, и находить основные аспекты, которые влияют на их удовлетворенность или недовольство. Так же он&amp;nbsp;позволит визуализировать распределение оценок NPS и выявить основные характеристики этого распределения, такие как медиана, квартили и наличие выбросов. В нашем случае так как это приложение chess.com,как пример я сделал box plot в котором есть 4 показателей моментов нашего приложения-это обучение,задачи,смотреть и играть. Как вы можете видеть лучшие показатели у нас в категории &#39;задачи&#39;,средний показатель у нас +20 а негативных отзывов у нас не было. Что же касается &#39;смотреть&#39; возможно из за сложностей в трансляции наши отзывы не слишком хорошие и у нас много негативных комментов.&amp;nbsp;" style="text;html=1;align=center;verticalAlign=middle;whiteSpace=wrap;rounded=0;" vertex="1" parent="1">
          <mxGeometry x="30" y="-1060" width="420" height="150" as="geometry" />
        </mxCell>
        <mxCell id="3wIJoGGmUqvrKHzzYAa4-28" value="-30&amp;nbsp; &amp;nbsp; &amp;nbsp; -20&amp;nbsp; &amp;nbsp; -10&amp;nbsp; &amp;nbsp; &amp;nbsp;0&amp;nbsp; &amp;nbsp; &amp;nbsp;10&amp;nbsp; &amp;nbsp; &amp;nbsp;20&amp;nbsp; &amp;nbsp; &amp;nbsp;30&amp;nbsp; &amp;nbsp; 40&amp;nbsp;" style="text;html=1;align=center;verticalAlign=middle;whiteSpace=wrap;rounded=0;" vertex="1" parent="1">
          <mxGeometry x="60" y="-840" width="360" height="30" as="geometry" />
        </mxCell>
        <mxCell id="3wIJoGGmUqvrKHzzYAa4-29" value="Обучение&lt;br&gt;&lt;br&gt;&lt;br&gt;&lt;br&gt;Задачи&lt;br&gt;&lt;br&gt;&lt;br&gt;&lt;br&gt;Смотреть&lt;br&gt;&lt;br&gt;&lt;br&gt;&lt;br&gt;Играть" style="text;html=1;align=center;verticalAlign=middle;whiteSpace=wrap;rounded=0;" vertex="1" parent="1">
          <mxGeometry x="50" y="-720" width="60" height="30" as="geometry" />
        </mxCell>
        <mxCell id="3wIJoGGmUqvrKHzzYAa4-30" value="" style="rounded=0;whiteSpace=wrap;html=1;fillColor=#FF0000;" vertex="1" parent="1">
          <mxGeometry x="250" y="-800" width="20" height="20" as="geometry" />
        </mxCell>
        <mxCell id="3wIJoGGmUqvrKHzzYAa4-31" value="" style="endArrow=none;html=1;rounded=0;" edge="1" parent="1">
          <mxGeometry width="50" height="50" relative="1" as="geometry">
            <mxPoint x="270" y="-790" as="sourcePoint" />
            <mxPoint x="310" y="-790" as="targetPoint" />
          </mxGeometry>
        </mxCell>
        <mxCell id="3wIJoGGmUqvrKHzzYAa4-32" value="" style="endArrow=none;html=1;rounded=0;" edge="1" parent="1">
          <mxGeometry width="50" height="50" relative="1" as="geometry">
            <mxPoint x="230" y="-790" as="sourcePoint" />
            <mxPoint x="250" y="-790" as="targetPoint" />
          </mxGeometry>
        </mxCell>
        <mxCell id="3wIJoGGmUqvrKHzzYAa4-33" value="" style="rounded=0;whiteSpace=wrap;html=1;fillColor=#FF0000;" vertex="1" parent="1">
          <mxGeometry x="280" y="-740" width="20" height="20" as="geometry" />
        </mxCell>
        <mxCell id="3wIJoGGmUqvrKHzzYAa4-34" value="" style="endArrow=none;html=1;rounded=0;" edge="1" parent="1">
          <mxGeometry width="50" height="50" relative="1" as="geometry">
            <mxPoint x="300" y="-730" as="sourcePoint" />
            <mxPoint x="320" y="-730" as="targetPoint" />
          </mxGeometry>
        </mxCell>
        <mxCell id="3wIJoGGmUqvrKHzzYAa4-35" value="" style="endArrow=none;html=1;rounded=0;" edge="1" parent="1">
          <mxGeometry width="50" height="50" relative="1" as="geometry">
            <mxPoint x="240" y="-730" as="sourcePoint" />
            <mxPoint x="280" y="-730" as="targetPoint" />
          </mxGeometry>
        </mxCell>
        <mxCell id="3wIJoGGmUqvrKHzzYAa4-36" value="" style="rounded=0;whiteSpace=wrap;html=1;fillColor=#FF0000;" vertex="1" parent="1">
          <mxGeometry x="250" y="-630" width="20" height="20" as="geometry" />
        </mxCell>
        <mxCell id="3wIJoGGmUqvrKHzzYAa4-37" value="" style="endArrow=none;html=1;rounded=0;" edge="1" parent="1">
          <mxGeometry width="50" height="50" relative="1" as="geometry">
            <mxPoint x="200" y="-620" as="sourcePoint" />
            <mxPoint x="250" y="-620.34" as="targetPoint" />
          </mxGeometry>
        </mxCell>
        <mxCell id="3wIJoGGmUqvrKHzzYAa4-38" value="" style="endArrow=none;html=1;rounded=0;" edge="1" parent="1">
          <mxGeometry width="50" height="50" relative="1" as="geometry">
            <mxPoint x="270" y="-620" as="sourcePoint" />
            <mxPoint x="320" y="-620" as="targetPoint" />
          </mxGeometry>
        </mxCell>
        <mxCell id="3wIJoGGmUqvrKHzzYAa4-39" value="" style="rounded=0;whiteSpace=wrap;html=1;fillColor=#FF0000;" vertex="1" parent="1">
          <mxGeometry x="200" y="-690" width="20" height="20" as="geometry" />
        </mxCell>
        <mxCell id="3wIJoGGmUqvrKHzzYAa4-40" value="" style="endArrow=none;html=1;rounded=0;" edge="1" parent="1">
          <mxGeometry width="50" height="50" relative="1" as="geometry">
            <mxPoint x="130" y="-680" as="sourcePoint" />
            <mxPoint x="200" y="-680.34" as="targetPoint" />
          </mxGeometry>
        </mxCell>
        <mxCell id="3wIJoGGmUqvrKHzzYAa4-41" value="" style="endArrow=none;html=1;rounded=0;" edge="1" parent="1">
          <mxGeometry width="50" height="50" relative="1" as="geometry">
            <mxPoint x="220" y="-680.34" as="sourcePoint" />
            <mxPoint x="280" y="-680.34" as="targetPoint" />
          </mxGeometry>
        </mxCell>
        <mxCell id="3wIJoGGmUqvrKHzzYAa4-42" value="" style="rounded=0;whiteSpace=wrap;html=1;fillColor=#FF0000;" vertex="1" parent="1">
          <mxGeometry x="160" y="-550" width="20" height="20" as="geometry" />
        </mxCell>
        <mxCell id="3wIJoGGmUqvrKHzzYAa4-43" value="Средние показатели" style="text;html=1;align=center;verticalAlign=middle;whiteSpace=wrap;rounded=0;" vertex="1" parent="1">
          <mxGeometry x="180" y="-555" width="140" height="30" as="geometry" />
        </mxCell>
        <mxCell id="3wIJoGGmUqvrKHzzYAa4-44" value="" style="endArrow=none;html=1;rounded=0;" edge="1" parent="1">
          <mxGeometry width="50" height="50" relative="1" as="geometry">
            <mxPoint x="200" y="-600" as="sourcePoint" />
            <mxPoint x="200" y="-640" as="targetPoint" />
          </mxGeometry>
        </mxCell>
        <mxCell id="3wIJoGGmUqvrKHzzYAa4-45" value="" style="endArrow=none;html=1;rounded=0;" edge="1" parent="1">
          <mxGeometry width="50" height="50" relative="1" as="geometry">
            <mxPoint x="319.66" y="-600" as="sourcePoint" />
            <mxPoint x="319.66" y="-640" as="targetPoint" />
          </mxGeometry>
        </mxCell>
        <mxCell id="3wIJoGGmUqvrKHzzYAa4-46" value="" style="endArrow=none;html=1;rounded=0;" edge="1" parent="1">
          <mxGeometry width="50" height="50" relative="1" as="geometry">
            <mxPoint x="279" y="-660" as="sourcePoint" />
            <mxPoint x="279" y="-700" as="targetPoint" />
          </mxGeometry>
        </mxCell>
        <mxCell id="3wIJoGGmUqvrKHzzYAa4-47" value="" style="endArrow=none;html=1;rounded=0;" edge="1" parent="1">
          <mxGeometry width="50" height="50" relative="1" as="geometry">
            <mxPoint x="130" y="-660" as="sourcePoint" />
            <mxPoint x="130" y="-700" as="targetPoint" />
          </mxGeometry>
        </mxCell>
        <mxCell id="3wIJoGGmUqvrKHzzYAa4-48" value="" style="endArrow=none;html=1;rounded=0;" edge="1" parent="1">
          <mxGeometry width="50" height="50" relative="1" as="geometry">
            <mxPoint x="319" y="-710" as="sourcePoint" />
            <mxPoint x="319" y="-750" as="targetPoint" />
          </mxGeometry>
        </mxCell>
        <mxCell id="3wIJoGGmUqvrKHzzYAa4-49" value="" style="endArrow=none;html=1;rounded=0;" edge="1" parent="1">
          <mxGeometry width="50" height="50" relative="1" as="geometry">
            <mxPoint x="239.5" y="-710" as="sourcePoint" />
            <mxPoint x="239.5" y="-750" as="targetPoint" />
          </mxGeometry>
        </mxCell>
        <mxCell id="3wIJoGGmUqvrKHzzYAa4-50" value="" style="endArrow=none;html=1;rounded=0;" edge="1" parent="1">
          <mxGeometry width="50" height="50" relative="1" as="geometry">
            <mxPoint x="230" y="-770" as="sourcePoint" />
            <mxPoint x="230" y="-810" as="targetPoint" />
          </mxGeometry>
        </mxCell>
        <mxCell id="3wIJoGGmUqvrKHzzYAa4-52" value="" style="endArrow=none;html=1;rounded=0;" edge="1" parent="1">
          <mxGeometry width="50" height="50" relative="1" as="geometry">
            <mxPoint x="310" y="-770" as="sourcePoint" />
            <mxPoint x="310" y="-810" as="targetPoint" />
          </mxGeometry>
        </mxCell>
        <mxCell id="3wIJoGGmUqvrKHzzYAa4-54" value="" style="shape=waypoint;sketch=0;fillStyle=solid;size=6;pointerEvents=1;points=[];fillColor=none;resizable=0;rotatable=0;perimeter=centerPerimeter;snapToPoint=1;" vertex="1" parent="1">
          <mxGeometry x="200" y="-800" width="20" height="20" as="geometry" />
        </mxCell>
        <mxCell id="3wIJoGGmUqvrKHzzYAa4-55" value="" style="shape=waypoint;sketch=0;fillStyle=solid;size=6;pointerEvents=1;points=[];fillColor=none;resizable=0;rotatable=0;perimeter=centerPerimeter;snapToPoint=1;" vertex="1" parent="1">
          <mxGeometry x="330" y="-800" width="20" height="20" as="geometry" />
        </mxCell>
        <mxCell id="3wIJoGGmUqvrKHzzYAa4-56" value="" style="shape=waypoint;sketch=0;fillStyle=solid;size=6;pointerEvents=1;points=[];fillColor=none;resizable=0;rotatable=0;perimeter=centerPerimeter;snapToPoint=1;" vertex="1" parent="1">
          <mxGeometry x="320" y="-800" width="20" height="20" as="geometry" />
        </mxCell>
        <mxCell id="3wIJoGGmUqvrKHzzYAa4-57" value="" style="shape=waypoint;sketch=0;fillStyle=solid;size=6;pointerEvents=1;points=[];fillColor=none;resizable=0;rotatable=0;perimeter=centerPerimeter;snapToPoint=1;" vertex="1" parent="1">
          <mxGeometry x="320" y="-740" width="20" height="20" as="geometry" />
        </mxCell>
        <mxCell id="3wIJoGGmUqvrKHzzYAa4-58" value="" style="shape=waypoint;sketch=0;fillStyle=solid;size=6;pointerEvents=1;points=[];fillColor=none;resizable=0;rotatable=0;perimeter=centerPerimeter;snapToPoint=1;" vertex="1" parent="1">
          <mxGeometry x="180" y="-740" width="20" height="20" as="geometry" />
        </mxCell>
        <mxCell id="3wIJoGGmUqvrKHzzYAa4-59" value="" style="shape=waypoint;sketch=0;fillStyle=solid;size=6;pointerEvents=1;points=[];fillColor=none;resizable=0;rotatable=0;perimeter=centerPerimeter;snapToPoint=1;" vertex="1" parent="1">
          <mxGeometry x="170" y="-740" width="20" height="20" as="geometry" />
        </mxCell>
        <mxCell id="3wIJoGGmUqvrKHzzYAa4-60" value="" style="shape=waypoint;sketch=0;fillStyle=solid;size=6;pointerEvents=1;points=[];fillColor=none;resizable=0;rotatable=0;perimeter=centerPerimeter;snapToPoint=1;" vertex="1" parent="1">
          <mxGeometry x="300" y="-690" width="20" height="20" as="geometry" />
        </mxCell>
        <mxCell id="3wIJoGGmUqvrKHzzYAa4-61" value="" style="shape=waypoint;sketch=0;fillStyle=solid;size=6;pointerEvents=1;points=[];fillColor=none;resizable=0;rotatable=0;perimeter=centerPerimeter;snapToPoint=1;" vertex="1" parent="1">
          <mxGeometry x="330" y="-630" width="20" height="20" as="geometry" />
        </mxCell>
        <mxCell id="3wIJoGGmUqvrKHzzYAa4-62" value="" style="shape=waypoint;sketch=0;fillStyle=solid;size=6;pointerEvents=1;points=[];fillColor=none;resizable=0;rotatable=0;perimeter=centerPerimeter;snapToPoint=1;" vertex="1" parent="1">
          <mxGeometry x="340" y="-630" width="20" height="20" as="geometry" />
        </mxCell>
        <mxCell id="3wIJoGGmUqvrKHzzYAa4-63" value="" style="shape=waypoint;sketch=0;fillStyle=solid;size=6;pointerEvents=1;points=[];fillColor=none;resizable=0;rotatable=0;perimeter=centerPerimeter;snapToPoint=1;" vertex="1" parent="1">
          <mxGeometry x="170" y="-630" width="20" height="20" as="geometry" />
        </mxCell>
        <mxCell id="3wIJoGGmUqvrKHzzYAa4-64" value="" style="shape=waypoint;sketch=0;fillStyle=solid;size=6;pointerEvents=1;points=[];fillColor=none;resizable=0;rotatable=0;perimeter=centerPerimeter;snapToPoint=1;" vertex="1" parent="1">
          <mxGeometry x="150" y="-630" width="20" height="20" as="geometry" />
        </mxCell>
        <mxCell id="3wIJoGGmUqvrKHzzYAa4-65" value="" style="shape=waypoint;sketch=0;fillStyle=solid;size=6;pointerEvents=1;points=[];fillColor=none;resizable=0;rotatable=0;perimeter=centerPerimeter;snapToPoint=1;" vertex="1" parent="1">
          <mxGeometry x="160" y="-575" width="20" height="20" as="geometry" />
        </mxCell>
        <mxCell id="3wIJoGGmUqvrKHzzYAa4-66" value="Выбросы" style="text;html=1;align=center;verticalAlign=middle;whiteSpace=wrap;rounded=0;" vertex="1" parent="1">
          <mxGeometry x="180" y="-580" width="140" height="30" as="geometry" />
        </mxCell>
      </root>
    </mxGraphModel>
  </diagram>
</mxfile>
